# Blender v2.79 (sub 0) OBJ File: ''
# www.blender.org
o Cube
v 1.000000 -1.000000 -1.000000
v 1.000000 -1.000000 1.000000
v -1.000000 -1.000000 1.000000
v -1.000000 -1.000000 -1.000000

v 1.000000 1.000000 -1.000000
v 1.000000 1.000000 1.000000
v -1.000000 1.000000 1.000000
v -1.000000 1.000000 -1.000000

vn 0.0000 -1.0000 0.0000
vn 0.0000 1.0000 0.0000
vn 1.0000 0.0000 0.0000
vn -0.0000 -0.0000 1.0000
vn -1.0000 -0.0000 -0.0000
vn 0.0000 0.0000 -1.0000

vt 0 0
vt 1 0
vt 0 1
vt 1 1

f 1/4/1 2/3/1 3/1/1 4/2/1
f 5/4/2 8/3/2 7/1/2 6/2/2
f 1/4/3 5/3/3 6/1/3 2/2/3
f 2/4/4 6/3/4 7/1/4 3/2/4
f 3/4/5 7/3/5 8/1/5 4/2/5
f 5/4/6 1/3/6 4/1/6 8/2/6
